# xmcd
#
# Track frame offsets:
# 150
# 12786
# 27472
# 40580
# 52541
# 62804
# 73146
# 86785
# 98759
# 112291
# 121668
# 135694
#
# Disc length: 1954 seconds
#
# Revision: 0
# Processed by: cddbd v1.5.1PL2 Copyright (c) Steve Scherf et al.
# Submitted via: Audion 3.0.2 (http://www.panic.com/audion/)
#
DISCID=9c07a00c
DTITLE=Toña "La Negra" - Pasión Bolero
DYEAR=1900
DGENRE=
TTITLE0=Cada Noche Un Amor
TTITLE1=Azul
TTITLE2=Gotas De Amor
TTITLE3=Golondrina
TTITLE4=Solo Tú
TTITLE5=Palmera
TTITLE6=Languidez
TTITLE7=Oración Caribe
TTITLE8=Estrella Solitaria
TTITLE9=Escarcha
TTITLE10=Tú No Comprendes
TTITLE11=Envidia
EXTD=
EXTT0=
EXTT1=
EXTT2=
EXTT3=
EXTT4=
EXTT5=
EXTT6=
EXTT7=
EXTT8=
EXTT9=
EXTT10=
EXTT11=
PLAYORDER=
